<svg viewBox="0 0 286 836" width="286" height="836" xmlns="http://www.w3.org/2000/svg" font-family="Geist, system-ui, -apple-system, 'Segoe UI', Roboto, sans-serif">
  <defs>
    <linearGradient id="gSide" x1="0" y1="0" x2="0" y2="1"><stop offset="0" stop-color="#0E1726"/><stop offset="1" stop-color="#0B121E"/></linearGradient>
    <linearGradient id="gAv" x1="0" y1="0" x2="1" y2="1"><stop offset="0" stop-color="#EC6D3F"/><stop offset="1" stop-color="#E7B23A"/></linearGradient>
    <linearGradient id="gScout" x1="0" y1="0" x2="1" y2="0"><stop offset="0" stop-color="#EC6D3F" stop-opacity="0.16"/><stop offset="1" stop-color="#46C99A" stop-opacity="0.10"/></linearGradient>
    <filter id="soft" x="-20%" y="-20%" width="140%" height="140%"><feDropShadow dx="0" dy="14" stdDeviation="22" flood-color="#0E1726" flood-opacity="0.30"/></filter>
    <clipPath id="panel"><rect x="8" y="8" width="270" height="820" rx="16"/></clipPath>

    <symbol id="mark" viewBox="0 0 30 30">
      <path d="M11 21 L18 16 L25 11" stroke="#9DB8CC" stroke-width="2" stroke-dasharray="0.5 4" stroke-linecap="round" fill="none" opacity="0.5"/>
      <path d="M7 17 L11 21 L7 25" stroke="#F4ECDD" stroke-width="2.4" fill="none" stroke-linecap="round" stroke-linejoin="round"/>
      <path d="M14 12 L18 16 L14 20" stroke="#F4ECDD" stroke-width="2.4" fill="none" stroke-linecap="round" stroke-linejoin="round"/>
      <path d="M21 7 L25 11 L21 15" stroke="#EC6D3F" stroke-width="2.4" fill="none" stroke-linecap="round" stroke-linejoin="round"/>
    </symbol>
    <symbol id="ic-scout" viewBox="0 0 24 24"><path d="M10 1.5 L11.4 7.6 L17.5 9 L11.4 10.4 L10 16.5 L8.6 10.4 L2.5 9 L8.6 7.6 Z" fill="currentColor"/></symbol>
    <symbol id="ic-dash" viewBox="0 0 24 24"><g fill="none" stroke="currentColor" stroke-width="1.7" stroke-linecap="round" stroke-linejoin="round"><rect x="3" y="3" width="8" height="8" rx="1.6"/><rect x="13" y="3" width="8" height="8" rx="1.6"/><rect x="13" y="13" width="8" height="8" rx="1.6"/><rect x="3" y="13" width="8" height="8" rx="1.6"/></g></symbol>
    <symbol id="ic-pl" viewBox="0 0 24 24"><g fill="none" stroke="currentColor" stroke-width="1.7" stroke-linecap="round" stroke-linejoin="round"><path d="M4 3 V21 H21"/><path d="M7 15 L11 10 L14 13 L20 6"/></g></symbol>
    <symbol id="ic-bs" viewBox="0 0 24 24"><g fill="none" stroke="currentColor" stroke-width="1.7" stroke-linecap="round" stroke-linejoin="round"><path d="M12 4 V20"/><path d="M6 20 H18"/><path d="M4 8 H20"/><path d="M4 8 L2 13 a3 2 0 0 0 4 0 Z"/><path d="M20 8 L18 13 a3 2 0 0 0 4 0 Z"/></g></symbol>
    <symbol id="ic-cash" viewBox="0 0 24 24"><g fill="none" stroke="currentColor" stroke-width="1.7" stroke-linecap="round" stroke-linejoin="round"><rect x="3" y="7" width="18" height="10" rx="1.8"/><circle cx="12" cy="12" r="2.3"/><line x1="6" y1="9.5" x2="6" y2="14.5"/><line x1="18" y1="9.5" x2="18" y2="14.5"/></g></symbol>
    <symbol id="ic-txn" viewBox="0 0 24 24"><g fill="none" stroke="currentColor" stroke-width="1.7" stroke-linecap="round" stroke-linejoin="round"><circle cx="5" cy="6" r="1.2"/><line x1="9" y1="6" x2="20" y2="6"/><circle cx="5" cy="12" r="1.2"/><line x1="9" y1="12" x2="20" y2="12"/><circle cx="5" cy="18" r="1.2"/><line x1="9" y1="18" x2="20" y2="18"/></g></symbol>
    <symbol id="ic-rev" viewBox="0 0 24 24"><g fill="none" stroke="currentColor" stroke-width="1.7" stroke-linecap="round" stroke-linejoin="round"><path d="M3 17 L9 11 L13 15 L21 7"/><path d="M21 7 H16 M21 7 V12"/></g></symbol>
    <symbol id="ic-users" viewBox="0 0 24 24"><g fill="none" stroke="currentColor" stroke-width="1.7" stroke-linecap="round" stroke-linejoin="round"><circle cx="9" cy="8" r="3"/><path d="M3.5 20 a5.5 5.5 0 0 1 11 0"/><circle cx="16.5" cy="9" r="2.3"/><path d="M15.2 14.2 a5 5 0 0 1 5.3 5.8"/></g></symbol>
    <symbol id="ic-wallet" viewBox="0 0 24 24"><g fill="none" stroke="currentColor" stroke-width="1.7" stroke-linecap="round" stroke-linejoin="round"><rect x="3" y="6" width="18" height="13" rx="2.2"/><line x1="3" y1="10" x2="21" y2="10"/><circle cx="16.5" cy="14.5" r="1.3"/></g></symbol>
    <symbol id="ic-clock" viewBox="0 0 24 24"><g fill="none" stroke="currentColor" stroke-width="1.7" stroke-linecap="round" stroke-linejoin="round"><circle cx="12" cy="12" r="9"/><path d="M12 7 V12 L15.5 14"/></g></symbol>
    <symbol id="ic-waterfall" viewBox="0 0 24 24"><g fill="none" stroke="currentColor" stroke-width="1.7" stroke-linecap="round" stroke-linejoin="round"><path d="M4 5 H8 V11 H13 V16 H18 V20"/></g></symbol>
    <symbol id="ic-cube" viewBox="0 0 24 24"><g fill="none" stroke="currentColor" stroke-width="1.7" stroke-linecap="round" stroke-linejoin="round"><path d="M12 3 L20 7.5 V16.5 L12 21 L4 16.5 V7.5 Z"/><path d="M4 7.5 L12 12 L20 7.5"/><path d="M12 12 V21"/></g></symbol>
    <symbol id="ic-waves" viewBox="0 0 24 24"><g fill="none" stroke="currentColor" stroke-width="1.7" stroke-linecap="round" stroke-linejoin="round"><path d="M3 9 q3 -3 6 0 t6 0 t6 0"/><path d="M3 15 q3 -3 6 0 t6 0 t6 0"/></g></symbol>
    <symbol id="ic-sliders" viewBox="0 0 24 24"><g fill="none" stroke="currentColor" stroke-width="1.7" stroke-linecap="round" stroke-linejoin="round"><line x1="4" y1="8" x2="20" y2="8"/><circle cx="9" cy="8" r="2.2"/><line x1="4" y1="16" x2="20" y2="16"/><circle cx="15" cy="16" r="2.2"/></g></symbol>
    <symbol id="ic-ledger" viewBox="0 0 24 24"><g fill="none" stroke="currentColor" stroke-width="1.7" stroke-linecap="round" stroke-linejoin="round"><path d="M6 4 h11 a1 1 0 0 1 1 1 v15 H8 a2 2 0 0 1 -2 -2 Z"/><path d="M6 18 a2 2 0 0 0 2 2 H18"/><path d="M9 8 h6 M9 11 h6"/></g></symbol>
    <symbol id="ic-gear" viewBox="0 0 24 24"><g fill="none" stroke="currentColor" stroke-width="1.7" stroke-linecap="round" stroke-linejoin="round"><circle cx="12" cy="12" r="3"/><path d="M12 2.5 V5 M12 19 V21.5 M2.5 12 H5 M19 12 H21.5 M5.2 5.2 L7 7 M17 17 L18.8 18.8 M18.8 5.2 L17 7 M7 17 L5.2 18.8"/></g></symbol>
  </defs>

  <!-- panel -->
  <rect x="8" y="8" width="270" height="820" rx="16" fill="#0E1726" filter="url(#soft)" opacity="0.18"/>
  <rect x="8" y="8" width="270" height="820" rx="16" fill="url(#gSide)" stroke="#0E1726"/>
  <g clip-path="url(#panel)">

    <!-- brand -->
    <use href="#mark" x="22" y="20" width="22" height="22"/>
    <text x="50" y="38" font-family="Fraunces, Georgia, serif" font-size="16" font-weight="600" fill="#F4ECDD">dogfood<tspan fill="#9DB8CC" font-weight="500">.cafe</tspan></text>

    <!-- company switcher -->
    <rect x="20" y="58" width="246" height="42" rx="10" fill="#FFFFFF" fill-opacity="0.025" stroke="#9DB8CC" stroke-opacity="0.16"/>
    <rect x="32" y="67" width="24" height="24" rx="7" fill="url(#gAv)"/>
    <text x="44" y="83" font-size="10.5" font-weight="700" fill="#0E1726" text-anchor="middle">BD</text>
    <text x="66" y="77" font-size="12.5" font-weight="600" fill="#F4ECDD">Beacon Devices</text>
    <circle cx="68" cy="89" r="2.4" fill="#E7B23A"/>
    <text x="76" y="92.5" font-size="10" fill="#9DB8CC">FY26 · Jun · forecasting</text>
    <path d="M250 77 l4 4 4 -4" stroke="#9DB8CC" stroke-width="1.5" fill="none" stroke-linecap="round" stroke-linejoin="round"/>

    <!-- Scout pinned -->
    <rect x="20" y="112" width="246" height="44" rx="11" fill="url(#gScout)" stroke="#EC6D3F" stroke-opacity="0.35"/>
    <use href="#ic-scout" x="32" y="124" width="20" height="20" color="#EC6D3F"/>
    <text x="60" y="130" font-size="13" font-weight="600" fill="#F4ECDD">Ask Scout</text>
    <text x="60" y="146" font-size="10" fill="#9DB8CC">module-aware</text>
    <rect x="222" y="125" width="32" height="18" rx="6" fill="none" stroke="#9DB8CC" stroke-opacity="0.25"/>
    <text x="238" y="138" font-size="10" fill="#9DB8CC" text-anchor="middle">⌘K</text>

    <!-- OVERVIEW -->
    <text x="24" y="182" font-size="10" font-weight="600" letter-spacing="0.8" fill="#8FA6BB" fill-opacity="0.55">OVERVIEW</text>
    <use href="#ic-dash" x="30" y="191" width="18" height="18" color="#8FA6BB"/>
    <text x="52" y="204.5" font-size="12.5" font-weight="500" fill="#BFC9D4">Dashboard</text>

    <!-- FINANCIAL STATEMENTS -->
    <text x="24" y="244" font-size="10" font-weight="600" letter-spacing="0.8" fill="#8FA6BB" fill-opacity="0.55">FINANCIAL STATEMENTS</text>
    <!-- active: Forecasted P&L -->
    <rect x="14" y="261" width="258" height="34" rx="9" fill="#EC6D3F" fill-opacity="0.12"/>
    <rect x="8" y="265" width="3" height="26" rx="1.5" fill="#EC6D3F"/>
    <use href="#ic-pl" x="30" y="269" width="18" height="18" color="#EC6D3F"/>
    <text x="52" y="282.5" font-size="12.5" font-weight="600" fill="#F4ECDD">Forecasted P&amp;L</text>
    <use href="#ic-bs" x="30" y="299" width="18" height="18" color="#8FA6BB"/>
    <text x="52" y="312.5" font-size="12.5" font-weight="500" fill="#BFC9D4">Balance Sheet</text>
    <use href="#ic-cash" x="30" y="329" width="18" height="18" color="#8FA6BB"/>
    <text x="52" y="342.5" font-size="12.5" font-weight="500" fill="#BFC9D4">Cash Flow</text>
    <use href="#ic-txn" x="30" y="359" width="18" height="18" color="#8FA6BB"/>
    <text x="52" y="372.5" font-size="12.5" font-weight="500" fill="#BFC9D4">Transaction Details</text>

    <!-- FORECASTS -->
    <text x="24" y="396" font-size="10" font-weight="600" letter-spacing="0.8" fill="#8FA6BB" fill-opacity="0.55">FORECASTS</text>
    <!-- P&L subsection -->
    <text x="30" y="421" font-size="10" font-weight="600" fill="#8FA6BB" fill-opacity="0.75">P&amp;L</text>
    <line x1="38" y1="430" x2="38" y2="490" stroke="#9DB8CC" stroke-opacity="0.18"/>
    <use href="#ic-rev" x="44" y="419" width="18" height="18" color="#8FA6BB"/>
    <text x="66" y="432.5" font-size="12.5" font-weight="500" fill="#BFC9D4">Revenue</text>
    <use href="#ic-users" x="44" y="447" width="18" height="18" color="#8FA6BB"/>
    <text x="66" y="460.5" font-size="12.5" font-weight="500" fill="#BFC9D4">Personnel</text>
    <use href="#ic-wallet" x="44" y="475" width="18" height="18" color="#8FA6BB"/>
    <text x="66" y="488.5" font-size="12.5" font-weight="500" fill="#BFC9D4">Expenses</text>
    <!-- Balance Sheet subsection -->
    <text x="30" y="517" font-size="10" font-weight="600" fill="#8FA6BB" fill-opacity="0.75">Balance Sheet</text>
    <line x1="38" y1="526" x2="38" y2="642" stroke="#9DB8CC" stroke-opacity="0.18"/>
    <use href="#ic-clock" x="44" y="515" width="18" height="18" color="#8FA6BB"/>
    <text x="66" y="528.5" font-size="12.5" font-weight="500" fill="#BFC9D4">AR Forecast</text>
    <use href="#ic-waterfall" x="44" y="543" width="18" height="18" color="#8FA6BB"/>
    <text x="66" y="556.5" font-size="12.5" font-weight="500" fill="#BFC9D4">Waterfall Revenue Fcst</text>
    <use href="#ic-cube" x="44" y="571" width="18" height="18" color="#8FA6BB"/>
    <text x="66" y="584.5" font-size="12.5" font-weight="500" fill="#BFC9D4">Fixed Asset Budget</text>
    <use href="#ic-waves" x="44" y="599" width="18" height="18" color="#8FA6BB"/>
    <text x="66" y="612.5" font-size="12.5" font-weight="500" fill="#BFC9D4">Operating Cash Fcst</text>
    <!-- Assumptions (peer of the subsections) -->
    <use href="#ic-sliders" x="30" y="635" width="18" height="18" color="#8FA6BB"/>
    <text x="52" y="648.5" font-size="12.5" font-weight="500" fill="#BFC9D4">Assumptions</text>

    <!-- ACCOUNTING (collapsed stub) -->
    <g opacity="0.5">
      <use href="#ic-ledger" x="30" y="681" width="18" height="18" color="#8FA6BB"/>
      <text x="52" y="692" font-size="12.5" font-weight="500" fill="#BFC9D4">Accounting</text>
      <text x="52" y="706" font-size="9.5" fill="#8FA6BB">Close · subledgers · standards · 15</text>
      <path d="M252 690 l4 4 -4 4" stroke="#9DB8CC" stroke-width="1.5" fill="none" stroke-linecap="round" stroke-linejoin="round"/>
    </g>
    <rect x="222" y="678" width="36" height="16" rx="8" fill="#E7B23A" fill-opacity="0.10" stroke="#E7B23A" stroke-opacity="0.3"/>
    <text x="240" y="690" font-size="9" font-weight="600" fill="#E7B23A" text-anchor="middle" opacity="0.7">soon</text>

    <!-- SYSTEM (collapsed stub) -->
    <g opacity="0.5">
      <use href="#ic-gear" x="30" y="729" width="18" height="18" color="#8FA6BB"/>
      <text x="52" y="742.5" font-size="12.5" font-weight="500" fill="#BFC9D4">System</text>
      <path d="M252 738 l4 4 -4 4" stroke="#9DB8CC" stroke-width="1.5" fill="none" stroke-linecap="round" stroke-linejoin="round"/>
    </g>
    <rect x="222" y="730" width="36" height="16" rx="8" fill="#E7B23A" fill-opacity="0.10" stroke="#E7B23A" stroke-opacity="0.3"/>
    <text x="240" y="742" font-size="9" font-weight="600" fill="#E7B23A" text-anchor="middle" opacity="0.7">soon</text>

    <!-- footer -->
    <line x1="20" y1="772" x2="266" y2="772" stroke="#9DB8CC" stroke-opacity="0.16"/>
    <circle cx="36" cy="800" r="14" fill="#16273A"/>
    <text x="36" y="804" font-size="12" font-weight="700" fill="#F4ECDD" text-anchor="middle">C</text>
    <text x="58" y="796" font-size="12.5" font-weight="600" fill="#F4ECDD">Chris</text>
    <text x="58" y="810" font-size="10.5" fill="#9DB8CC">Controller</text>
    <use href="#ic-gear" x="242" y="792" width="16" height="16" color="#8FA6BB"/>
  </g>
</svg>
