<svg viewBox="0 0 888 826" width="888" height="826" xmlns="http://www.w3.org/2000/svg" font-family="Geist, system-ui, -apple-system, 'Segoe UI', Roboto, sans-serif">
  <defs>
    <linearGradient id="gSide" x1="0" y1="0" x2="0" y2="1"><stop offset="0" stop-color="#0E1726"/><stop offset="1" stop-color="#0B121E"/></linearGradient>
    <linearGradient id="gAv" x1="0" y1="0" x2="1" y2="1"><stop offset="0" stop-color="#EC6D3F"/><stop offset="1" stop-color="#E7B23A"/></linearGradient>
    <linearGradient id="gScout" x1="0" y1="0" x2="1" y2="0"><stop offset="0" stop-color="#EC6D3F" stop-opacity="0.16"/><stop offset="1" stop-color="#46C99A" stop-opacity="0.10"/></linearGradient>
    <filter id="soft" x="-30%" y="-30%" width="160%" height="160%"><feDropShadow dx="0" dy="14" stdDeviation="22" flood-color="#0E1726" flood-opacity="0.20"/></filter>
    <clipPath id="navc"><rect x="8" y="8" width="250" height="810" rx="16"/></clipPath>
    <marker id="mE" markerWidth="9" markerHeight="9" refX="4.5" refY="4.5" orient="auto"><path d="M1 1 L8 4.5 L1 8 L3 4.5 Z" fill="#EC6D3F"/></marker>
    <marker id="mA" markerWidth="9" markerHeight="9" refX="4.5" refY="4.5" orient="auto"><path d="M1 1 L8 4.5 L1 8 L3 4.5 Z" fill="#2FA37D"/></marker>

    <symbol id="mark" viewBox="0 0 30 30"><path d="M11 21 L18 16 L25 11" stroke="#9DB8CC" stroke-width="2" stroke-dasharray="0.5 4" stroke-linecap="round" fill="none" opacity="0.5"/><path d="M7 17 L11 21 L7 25" stroke="#F4ECDD" stroke-width="2.4" fill="none" stroke-linecap="round" stroke-linejoin="round"/><path d="M14 12 L18 16 L14 20" stroke="#F4ECDD" stroke-width="2.4" fill="none" stroke-linecap="round" stroke-linejoin="round"/><path d="M21 7 L25 11 L21 15" stroke="#EC6D3F" stroke-width="2.4" fill="none" stroke-linecap="round" stroke-linejoin="round"/></symbol>
    <symbol id="ic-scout" viewBox="0 0 24 24"><path d="M10 1.5 L11.4 7.6 L17.5 9 L11.4 10.4 L10 16.5 L8.6 10.4 L2.5 9 L8.6 7.6 Z" fill="currentColor"/></symbol>
    <symbol id="ic-dash" viewBox="0 0 24 24"><g fill="none" stroke="currentColor" stroke-width="1.8" stroke-linecap="round" stroke-linejoin="round"><rect x="3" y="3" width="8" height="8" rx="1.6"/><rect x="13" y="3" width="8" height="8" rx="1.6"/><rect x="13" y="13" width="8" height="8" rx="1.6"/><rect x="3" y="13" width="8" height="8" rx="1.6"/></g></symbol>
    <symbol id="ic-board" viewBox="0 0 24 24"><g fill="none" stroke="currentColor" stroke-width="1.8" stroke-linecap="round" stroke-linejoin="round"><rect x="3" y="4" width="18" height="12" rx="1.5"/><path d="M7 13 V10 M11 13 V7.5 M15 13 V11"/><path d="M12 16 V19 M9 19 H15"/></g></symbol>
    <symbol id="ic-pl" viewBox="0 0 24 24"><g fill="none" stroke="currentColor" stroke-width="1.8" stroke-linecap="round" stroke-linejoin="round"><path d="M4 3 V21 H21"/><path d="M7 15 L11 10 L14 13 L20 6"/></g></symbol>
    <symbol id="ic-bs" viewBox="0 0 24 24"><g fill="none" stroke="currentColor" stroke-width="1.8" stroke-linecap="round" stroke-linejoin="round"><path d="M12 4 V20"/><path d="M6 20 H18"/><path d="M4 8 H20"/><path d="M4 8 L2 13 a3 2 0 0 0 4 0 Z"/><path d="M20 8 L18 13 a3 2 0 0 0 4 0 Z"/></g></symbol>
    <symbol id="ic-cash" viewBox="0 0 24 24"><g fill="none" stroke="currentColor" stroke-width="1.8" stroke-linecap="round" stroke-linejoin="round"><rect x="3" y="7" width="18" height="10" rx="1.8"/><circle cx="12" cy="12" r="2.3"/><line x1="6" y1="9.5" x2="6" y2="14.5"/><line x1="18" y1="9.5" x2="18" y2="14.5"/></g></symbol>
    <symbol id="ic-txn" viewBox="0 0 24 24"><g fill="none" stroke="currentColor" stroke-width="1.8" stroke-linecap="round" stroke-linejoin="round"><circle cx="5" cy="6" r="1.2"/><line x1="9" y1="6" x2="20" y2="6"/><circle cx="5" cy="12" r="1.2"/><line x1="9" y1="12" x2="20" y2="12"/><circle cx="5" cy="18" r="1.2"/><line x1="9" y1="18" x2="20" y2="18"/></g></symbol>
    <symbol id="ic-sliders" viewBox="0 0 24 24"><g fill="none" stroke="currentColor" stroke-width="1.8" stroke-linecap="round" stroke-linejoin="round"><line x1="4" y1="8" x2="20" y2="8"/><circle cx="9" cy="8" r="2.2"/><line x1="4" y1="16" x2="20" y2="16"/><circle cx="15" cy="16" r="2.2"/></g></symbol>
    <symbol id="ic-rev" viewBox="0 0 24 24"><g fill="none" stroke="currentColor" stroke-width="1.8" stroke-linecap="round" stroke-linejoin="round"><path d="M3 17 L9 11 L13 15 L21 7"/><path d="M21 7 H16 M21 7 V12"/></g></symbol>
    <symbol id="ic-users" viewBox="0 0 24 24"><g fill="none" stroke="currentColor" stroke-width="1.8" stroke-linecap="round" stroke-linejoin="round"><circle cx="9" cy="8" r="3"/><path d="M3.5 20 a5.5 5.5 0 0 1 11 0"/><circle cx="16.5" cy="9" r="2.3"/><path d="M15.2 14.2 a5 5 0 0 1 5.3 5.8"/></g></symbol>
    <symbol id="ic-wallet" viewBox="0 0 24 24"><g fill="none" stroke="currentColor" stroke-width="1.8" stroke-linecap="round" stroke-linejoin="round"><rect x="3" y="6" width="18" height="13" rx="2.2"/><line x1="3" y1="10" x2="21" y2="10"/><circle cx="16.5" cy="14.5" r="1.3"/></g></symbol>
    <symbol id="ic-clock" viewBox="0 0 24 24"><g fill="none" stroke="currentColor" stroke-width="1.8" stroke-linecap="round" stroke-linejoin="round"><circle cx="12" cy="12" r="9"/><path d="M12 7 V12 L15.5 14"/></g></symbol>
    <symbol id="ic-waterfall" viewBox="0 0 24 24"><g fill="none" stroke="currentColor" stroke-width="1.8" stroke-linecap="round" stroke-linejoin="round"><path d="M4 5 H8 V11 H13 V16 H18 V20"/></g></symbol>
    <symbol id="ic-cube" viewBox="0 0 24 24"><g fill="none" stroke="currentColor" stroke-width="1.8" stroke-linecap="round" stroke-linejoin="round"><path d="M12 3 L20 7.5 V16.5 L12 21 L4 16.5 V7.5 Z"/><path d="M4 7.5 L12 12 L20 7.5"/><path d="M12 12 V21"/></g></symbol>
    <symbol id="ic-waves" viewBox="0 0 24 24"><g fill="none" stroke="currentColor" stroke-width="1.8" stroke-linecap="round" stroke-linejoin="round"><path d="M3 9 q3 -3 6 0 t6 0 t6 0"/><path d="M3 15 q3 -3 6 0 t6 0 t6 0"/></g></symbol>
    <symbol id="ic-branch" viewBox="0 0 24 24"><g fill="none" stroke="currentColor" stroke-width="1.8" stroke-linecap="round" stroke-linejoin="round"><circle cx="6" cy="6" r="2.3"/><circle cx="6" cy="18" r="2.3"/><circle cx="18" cy="11" r="2.3"/><path d="M6 8.3 V15.7"/><path d="M6 11 C 10 11 14 11 15.7 11"/></g></symbol>
    <symbol id="ic-paired" viewBox="0 0 24 24"><g fill="none" stroke="currentColor" stroke-width="1.8" stroke-linecap="round" stroke-linejoin="round"><path d="M4 20 V21 H21"/><rect x="6" y="11" width="2.6" height="8"/><rect x="9" y="14" width="2.6" height="5"/><rect x="14" y="8" width="2.6" height="11"/><rect x="17" y="12" width="2.6" height="7"/></g></symbol>
    <symbol id="ic-gauge" viewBox="0 0 24 24"><g fill="none" stroke="currentColor" stroke-width="1.8" stroke-linecap="round" stroke-linejoin="round"><path d="M4 17 a8 8 0 0 1 16 0"/><path d="M12 17 L16.5 12.5"/><circle cx="12" cy="17" r="1.3"/></g></symbol>
    <symbol id="ic-ledger" viewBox="0 0 24 24"><g fill="none" stroke="currentColor" stroke-width="1.8" stroke-linecap="round" stroke-linejoin="round"><path d="M6 4 h11 a1 1 0 0 1 1 1 v15 H8 a2 2 0 0 1 -2 -2 Z"/><path d="M6 18 a2 2 0 0 0 2 2 H18"/><path d="M9 8 h6 M9 11 h6"/></g></symbol>
    <symbol id="ic-gear" viewBox="0 0 24 24"><g fill="none" stroke="currentColor" stroke-width="1.8" stroke-linecap="round" stroke-linejoin="round"><circle cx="12" cy="12" r="3"/><path d="M12 2.5 V5 M12 19 V21.5 M2.5 12 H5 M19 12 H21.5 M5.2 5.2 L7 7 M17 17 L18.8 18.8 M18.8 5.2 L17 7 M7 17 L5.2 18.8"/></g></symbol>
    <symbol id="ic-lock" viewBox="0 0 24 24"><g fill="none" stroke="currentColor" stroke-width="1.8" stroke-linecap="round" stroke-linejoin="round"><rect x="5" y="11" width="14" height="9" rx="2"/><path d="M8 11 V8 a4 4 0 0 1 8 0 V11"/></g></symbol>
  </defs>

  <!-- ===== NAV PANEL ===== -->
  <rect x="8" y="8" width="250" height="810" rx="16" fill="#0E1726" filter="url(#soft)" opacity="0.18"/>
  <rect x="8" y="8" width="250" height="810" rx="16" fill="url(#gSide)" stroke="#0E1726"/>
  <g clip-path="url(#navc)">
    <use href="#mark" x="20" y="18" width="20" height="20"/>
    <text x="46" y="34" font-family="Fraunces, Georgia, serif" font-size="15" font-weight="600" fill="#F4ECDD">dogfood<tspan fill="#9DB8CC" font-weight="500">.cafe</tspan></text>

    <rect x="18" y="48" width="224" height="34" rx="9" fill="#FFFFFF" fill-opacity="0.025" stroke="#9DB8CC" stroke-opacity="0.16"/>
    <rect x="28" y="55" width="20" height="20" rx="6" fill="url(#gAv)"/>
    <text x="38" y="69" font-size="9.5" font-weight="700" fill="#0E1726" text-anchor="middle">BD</text>
    <text x="56" y="63" font-size="11.5" font-weight="600" fill="#F4ECDD">Beacon Devices</text>
    <text x="56" y="76" font-size="9.5" fill="#9DB8CC">FY26 · Jun</text>
    <path d="M230 62 l4 4 4 -4" stroke="#9DB8CC" stroke-width="1.5" fill="none" stroke-linecap="round" stroke-linejoin="round"/>

    <rect x="18" y="92" width="224" height="40" rx="10" fill="url(#gScout)" stroke="#EC6D3F" stroke-opacity="0.35"/>
    <use href="#ic-scout" x="28" y="102" width="18" height="18" color="#EC6D3F"/>
    <text x="52" y="108" font-size="12.5" font-weight="600" fill="#F4ECDD">Ask Scout</text>
    <text x="52" y="122" font-size="9.5" fill="#9DB8CC">module-aware</text>
    <rect x="210" y="103" width="26" height="16" rx="5" fill="none" stroke="#9DB8CC" stroke-opacity="0.25"/>
    <text x="223" y="115" font-size="9" fill="#9DB8CC" text-anchor="middle">⌘K</text>

    <text x="22" y="158" font-size="9.5" font-weight="600" letter-spacing="0.8" fill="#8FA6BB" fill-opacity="0.55">OVERVIEW</text>
    <use href="#ic-dash" x="28" y="166" width="17" height="17" color="#8FA6BB"/><text x="50" y="178.5" font-size="12" font-weight="500" fill="#BFC9D4">Dashboard</text>
    <use href="#ic-board" x="28" y="193" width="17" height="17" color="#8FA6BB"/><text x="50" y="205.5" font-size="12" font-weight="500" fill="#BFC9D4">Board Package</text>

    <text x="22" y="226" font-size="9.5" font-weight="600" letter-spacing="0.8" fill="#8FA6BB" fill-opacity="0.55">FINANCIAL STATEMENTS</text>
    <rect x="14" y="231" width="238" height="32" rx="9" fill="#EC6D3F" fill-opacity="0.12"/>
    <rect x="8" y="235" width="3" height="24" rx="1.5" fill="#EC6D3F"/>
    <use href="#ic-pl" x="28" y="238" width="17" height="17" color="#EC6D3F"/><text x="50" y="250.5" font-size="12" font-weight="600" fill="#F4ECDD">Forecasted P&amp;L</text>
    <use href="#ic-bs" x="28" y="264" width="17" height="17" color="#8FA6BB"/><text x="50" y="276.5" font-size="12" font-weight="500" fill="#BFC9D4">Balance Sheet</text>
    <use href="#ic-cash" x="28" y="291" width="17" height="17" color="#8FA6BB"/><text x="50" y="303.5" font-size="12" font-weight="500" fill="#BFC9D4">Cash Flow</text>
    <use href="#ic-txn" x="28" y="318" width="17" height="17" color="#8FA6BB"/><text x="50" y="330.5" font-size="12" font-weight="500" fill="#BFC9D4">Transaction Details</text>

    <text x="22" y="353" font-size="9.5" font-weight="600" letter-spacing="0.8" fill="#8FA6BB" fill-opacity="0.55">FORECASTS</text>
    <use href="#ic-sliders" x="28" y="361" width="17" height="17" color="#EC6D3F"/><text x="50" y="373.5" font-size="12" font-weight="600" fill="#D8DEE6">Drivers &amp; Sliders</text>
    <text x="30" y="394" font-size="9.5" font-weight="600" fill="#8FA6BB" fill-opacity="0.75">P&amp;L drivers</text>
    <line x1="38" y1="401" x2="38" y2="474" stroke="#9DB8CC" stroke-opacity="0.18"/>
    <use href="#ic-rev" x="42" y="400" width="16" height="16" color="#8FA6BB"/><text x="62" y="412.5" font-size="12" font-weight="500" fill="#BFC9D4">Revenue</text>
    <use href="#ic-users" x="42" y="427" width="16" height="16" color="#8FA6BB"/><text x="62" y="439.5" font-size="12" font-weight="500" fill="#BFC9D4">Personnel</text>
    <use href="#ic-wallet" x="42" y="454" width="16" height="16" color="#8FA6BB"/><text x="62" y="466.5" font-size="12" font-weight="500" fill="#BFC9D4">Expenses</text>
    <text x="30" y="487" font-size="9.5" font-weight="600" fill="#8FA6BB" fill-opacity="0.75">Balance sheet drivers</text>
    <line x1="38" y1="494" x2="38" y2="594" stroke="#9DB8CC" stroke-opacity="0.18"/>
    <use href="#ic-clock" x="42" y="493" width="16" height="16" color="#8FA6BB"/><text x="62" y="505.5" font-size="12" font-weight="500" fill="#BFC9D4">AR Forecast</text>
    <use href="#ic-waterfall" x="42" y="520" width="16" height="16" color="#8FA6BB"/><text x="62" y="532.5" font-size="12" font-weight="500" fill="#BFC9D4">Waterfall Revenue Fcst</text>
    <use href="#ic-cube" x="42" y="547" width="16" height="16" color="#8FA6BB"/><text x="62" y="559.5" font-size="12" font-weight="500" fill="#BFC9D4">Fixed Asset Budget</text>
    <use href="#ic-waves" x="42" y="574" width="16" height="16" color="#8FA6BB"/><text x="62" y="586.5" font-size="12" font-weight="500" fill="#BFC9D4">Operating Cash Fcst</text>

    <text x="22" y="607" font-size="9.5" font-weight="600" letter-spacing="0.8" fill="#8FA6BB" fill-opacity="0.55">SCENARIOS</text>
    <use href="#ic-branch" x="28" y="615" width="17" height="17" color="#8FA6BB"/><text x="50" y="627.5" font-size="12" font-weight="500" fill="#BFC9D4">Scenario Manager</text>
    <use href="#ic-paired" x="28" y="642" width="17" height="17" color="#8FA6BB"/><text x="50" y="654.5" font-size="12" font-weight="500" fill="#BFC9D4">Scenario P&amp;L</text>
    <use href="#ic-gauge" x="28" y="669" width="17" height="17" color="#8FA6BB"/><text x="50" y="681.5" font-size="12" font-weight="500" fill="#BFC9D4">Scenario Dashboard</text>

    <g opacity="0.5">
      <use href="#ic-ledger" x="28" y="699" width="17" height="17" color="#8FA6BB"/><text x="50" y="706" font-size="12" font-weight="500" fill="#BFC9D4">Accounting</text>
      <text x="50" y="719" font-size="9" fill="#8FA6BB">Close · subledgers · standards · 15</text>
      <path d="M236 705 l4 4 -4 4" stroke="#9DB8CC" stroke-width="1.4" fill="none" stroke-linecap="round" stroke-linejoin="round"/>
    </g>
    <rect x="206" y="697" width="34" height="15" rx="7.5" fill="#E7B23A" fill-opacity="0.10" stroke="#E7B23A" stroke-opacity="0.3"/><text x="223" y="708" font-size="8.5" font-weight="600" fill="#E7B23A" text-anchor="middle" opacity="0.7">soon</text>

    <g opacity="0.5">
      <use href="#ic-gear" x="28" y="735" width="17" height="17" color="#8FA6BB"/><text x="50" y="747.5" font-size="12" font-weight="500" fill="#BFC9D4">System</text>
      <path d="M236 741 l4 4 -4 4" stroke="#9DB8CC" stroke-width="1.4" fill="none" stroke-linecap="round" stroke-linejoin="round"/>
    </g>
    <rect x="206" y="736" width="34" height="15" rx="7.5" fill="#E7B23A" fill-opacity="0.10" stroke="#E7B23A" stroke-opacity="0.3"/><text x="223" y="747" font-size="8.5" font-weight="600" fill="#E7B23A" text-anchor="middle" opacity="0.7">soon</text>

    <line x1="18" y1="766" x2="248" y2="766" stroke="#9DB8CC" stroke-opacity="0.16"/>
    <circle cx="34" cy="788" r="13" fill="#16273A"/><text x="34" y="792" font-size="11" font-weight="700" fill="#F4ECDD" text-anchor="middle">C</text>
    <text x="54" y="784" font-size="12" font-weight="600" fill="#F4ECDD">Chris</text><text x="54" y="797" font-size="10" fill="#9DB8CC">Controller</text>
    <use href="#ic-gear" x="230" y="780" width="15" height="15" color="#8FA6BB"/>
  </g>

  <!-- ===== CONTENT PANEL: lineage ===== -->
  <rect x="266" y="8" width="614" height="810" rx="16" fill="#0E1726" filter="url(#soft)" opacity="0.16"/>
  <rect x="266" y="8" width="614" height="810" rx="16" fill="#FAF7F1" stroke="#E6DECF"/>

  <text x="290" y="44" font-family="Fraunces, Georgia, serif" font-size="19" font-weight="600" fill="#1c2530">How every number connects</text>
  <text x="290" y="64" font-size="11.5" fill="#7A8694">drill down → actuals · roll up ← Budget / Base / Scenario</text>
  <!-- lens chips -->
  <text x="618" y="46" font-size="9.5" font-weight="600" fill="#9AA4B0">LENS</text>
  <rect x="648" y="35" width="58" height="17" rx="8.5" fill="#FFFFFF" stroke="#D7CFC0"/><use href="#ic-lock" x="654" y="38.5" width="11" height="11" color="#6E7B8A"/><text x="668" y="46.5" font-size="9.5" font-weight="600" fill="#6E7B8A">Budget</text>
  <rect x="710" y="35" width="48" height="17" rx="8.5" fill="#FBEFE9" stroke="#EC6D3F"/><circle cx="720" cy="43.5" r="2.4" fill="#EC6D3F"/><text x="727" y="46.5" font-size="9.5" font-weight="700" fill="#C9582E">Base</text>
  <rect x="762" y="35" width="66" height="17" rx="8.5" fill="#FFFFFF" stroke="#D7CFC0"/><use href="#ic-sliders" x="768" y="38.5" width="11" height="11" color="#B9852A"/><text x="782" y="46.5" font-size="9.5" font-weight="600" fill="#B9852A">Scenario</text>

  <!-- pivot P&L line card -->
  <rect x="300" y="100" width="556" height="78" rx="12" fill="#FFFFFF" stroke="#ECE6DB"/>
  <text x="316" y="124" font-size="13" font-weight="600" fill="#1c2530">P&amp;L line · Operating expenses · June 2026</text>
  <line x1="316" y1="132" x2="840" y2="132" stroke="#F1ECE2"/>
  <line x1="447" y1="138" x2="447" y2="172" stroke="#F1ECE2"/><line x1="578" y1="138" x2="578" y2="172" stroke="#F1ECE2"/><line x1="709" y1="138" x2="709" y2="172" stroke="#F1ECE2"/>
  <text x="320" y="152" font-size="9" font-weight="600" letter-spacing="0.5" fill="#5A6B7A">ACTUAL</text><text x="320" y="170" font-size="15" font-weight="600" fill="#1c2530">$312K</text>
  <text x="451" y="152" font-size="9" font-weight="600" letter-spacing="0.5" fill="#6E7B8A">BUDGET</text><text x="451" y="170" font-size="15" font-weight="600" fill="#1c2530">$290K</text>
  <text x="582" y="152" font-size="9" font-weight="600" letter-spacing="0.5" fill="#C9582E">BASE</text><text x="582" y="170" font-size="15" font-weight="600" fill="#1c2530">$305K</text>
  <text x="713" y="152" font-size="9" font-weight="600" letter-spacing="0.5" fill="#B9852A">SCENARIO</text><text x="713" y="170" font-size="15" font-weight="600" fill="#1c2530">$340K</text>

  <!-- directional labels -->
  <text x="300" y="200" font-size="10" font-weight="700" letter-spacing="0.4" fill="#C9582E">↓ DRILL DOWN · actuals</text>
  <text x="856" y="200" text-anchor="end" font-size="10" font-weight="700" letter-spacing="0.4" fill="#2C7A60">inputs ROLL UP ↑</text>

  <!-- LEFT lane: drill to actuals -->
  <line x1="374" y1="178" x2="374" y2="212" stroke="#EC6D3F" stroke-width="2" marker-end="url(#mE)"/>
  <rect x="300" y="212" width="150" height="46" rx="10" fill="#FFFFFF" stroke="#ECE6DB"/>
  <text x="314" y="232" font-size="11.5" font-weight="600" fill="#1c2530">GL account</text><text x="314" y="248" font-size="10" fill="#5A6B7A">6500–6900 · Opex</text>
  <line x1="374" y1="258" x2="374" y2="280" stroke="#EC6D3F" stroke-width="2" marker-end="url(#mE)"/>
  <rect x="300" y="280" width="150" height="58" rx="10" fill="#FFFFFF" stroke="#ECE6DB"/>
  <text x="314" y="300" font-size="11.5" font-weight="600" fill="#1c2530">Transactions</text><text x="314" y="316" font-size="9.5" fill="#5A6B7A">JE lines · source · date</text><text x="314" y="329" font-size="9.5" fill="#5A6B7A">memo · doc ref</text>
  <text x="375" y="357" text-anchor="middle" font-size="9.5" fill="#7A8694">the Actual column resolves to real entries</text>

  <!-- RIGHT lane: roll up from lenses + drivers -->
  <!-- lens cards -->
  <rect x="468" y="212" width="110" height="46" rx="10" fill="#FFFFFF" stroke="#ECE6DB"/><use href="#ic-lock" x="478" y="222" width="15" height="15" color="#6E7B8A"/><text x="498" y="232" font-size="11.5" font-weight="600" fill="#1c2530">Budget</text><text x="478" y="249" font-size="9.5" fill="#6E7B8A">frozen at approval</text>
  <rect x="588" y="212" width="100" height="46" rx="10" fill="#FFFFFF" stroke="#ECE6DB"/><circle cx="600" cy="229" r="4" fill="#EC6D3F"/><circle cx="600" cy="229" r="7" fill="none" stroke="#EC6D3F" stroke-opacity="0.35"/><text x="612" y="232" font-size="11.5" font-weight="600" fill="#1c2530">Base</text><text x="600" y="249" font-size="9.5" fill="#5A6B7A">live · re-derives</text>
  <rect x="698" y="212" width="142" height="46" rx="10" fill="#FFFFFF" stroke="#ECE6DB"/><use href="#ic-sliders" x="708" y="222" width="15" height="15" color="#B9852A"/><text x="728" y="232" font-size="11.5" font-weight="600" fill="#1c2530">Scenario</text><text x="708" y="249" font-size="9.5" fill="#5A6B7A">sliders + overrides</text>
  <!-- up arrows lenses -> pivot -->
  <line x1="523" y1="212" x2="510" y2="180" stroke="#2FA37D" stroke-width="2" marker-end="url(#mA)"/>
  <line x1="638" y1="212" x2="600" y2="180" stroke="#2FA37D" stroke-width="2" marker-end="url(#mA)"/>
  <line x1="769" y1="212" x2="740" y2="180" stroke="#2FA37D" stroke-width="2" marker-end="url(#mA)"/>

  <!-- drivers row -->
  <text x="468" y="280" font-size="9.5" font-weight="600" letter-spacing="0.4" fill="#5A6B7A">DRIVERS · with sliders</text>
  <rect x="468" y="288" width="110" height="40" rx="9" fill="#FFFFFF" stroke="#ECE6DB"/><text x="482" y="305" font-size="10.5" font-weight="600" fill="#1c2530">Revenue</text><line x1="482" y1="316" x2="560" y2="316" stroke="#E2DACB" stroke-width="2.5" stroke-linecap="round"/><circle cx="520" cy="316" r="3.5" fill="#B9852A"/>
  <rect x="588" y="288" width="100" height="40" rx="9" fill="#FFFFFF" stroke="#ECE6DB"/><text x="602" y="305" font-size="10.5" font-weight="600" fill="#1c2530">Personnel</text><line x1="602" y1="316" x2="672" y2="316" stroke="#E2DACB" stroke-width="2.5" stroke-linecap="round"/><circle cx="630" cy="316" r="3.5" fill="#B9852A"/>
  <rect x="698" y="288" width="142" height="40" rx="9" fill="#FFFFFF" stroke="#ECE6DB"/><text x="712" y="305" font-size="10.5" font-weight="600" fill="#1c2530">Expenses</text><line x1="712" y1="316" x2="824" y2="316" stroke="#E2DACB" stroke-width="2.5" stroke-linecap="round"/><circle cx="760" cy="316" r="3.5" fill="#B9852A"/>
  <!-- up arrows drivers -> Base & Scenario only -->
  <line x1="638" y1="288" x2="638" y2="260" stroke="#2FA37D" stroke-width="2" marker-end="url(#mA)"/>
  <line x1="769" y1="288" x2="769" y2="260" stroke="#2FA37D" stroke-width="2" marker-end="url(#mA)"/>
  <text x="654" y="350" text-anchor="middle" font-size="9.5" fill="#7A8694">drivers feed Base &amp; Scenario · Budget stays a frozen snapshot</text>

  <!-- lens explainer band -->
  <rect x="300" y="378" width="556" height="80" rx="12" fill="#F2EEE6" stroke="#E6DECF"/>
  <line x1="486" y1="392" x2="486" y2="444" stroke="#E2DACB"/><line x1="672" y1="392" x2="672" y2="444" stroke="#E2DACB"/>
  <use href="#ic-lock" x="316" y="392" width="13" height="13" color="#6E7B8A"/><text x="334" y="402" font-size="11" font-weight="700" fill="#5A6B7A">BUDGET</text>
  <text x="316" y="420" font-size="9.5" fill="#5A6B7A">Set once, locked at approval.</text><text x="316" y="433" font-size="9.5" fill="#5A6B7A">The fixed yardstick for variance.</text>
  <circle cx="504" cy="398" r="3.5" fill="#EC6D3F"/><text x="514" y="402" font-size="11" font-weight="700" fill="#C9582E">BASE</text>
  <text x="500" y="420" font-size="9.5" fill="#5A6B7A">The current forecast.</text><text x="500" y="433" font-size="9.5" fill="#5A6B7A">Re-derives as actuals land.</text>
  <use href="#ic-sliders" x="686" y="392" width="13" height="13" color="#B9852A"/><text x="704" y="402" font-size="11" font-weight="700" fill="#B9852A">SCENARIO</text>
  <text x="686" y="420" font-size="9.5" fill="#5A6B7A">Forks you flex with sliders</text><text x="686" y="433" font-size="9.5" fill="#5A6B7A">or detailed line edits.</text>

  <!-- per-statement note -->
  <text x="300" y="486" font-size="11.5" font-weight="600" fill="#1c2530">Same two directions on every statement</text>
  <circle cx="306" cy="504" r="2" fill="#9AA4B0"/><text x="316" y="508" font-size="10.5" fill="#5A6B7A"><tspan font-weight="600" fill="#1c2530">P&amp;L</tspan> → journal-entry detail</text>
  <circle cx="306" cy="524" r="2" fill="#9AA4B0"/><text x="316" y="528" font-size="10.5" fill="#5A6B7A"><tspan font-weight="600" fill="#1c2530">Balance Sheet</tspan> → subledgers &amp; schedules (AR aging, prepaids, fixed assets, deferred)</text>
  <circle cx="306" cy="544" r="2" fill="#9AA4B0"/><text x="316" y="548" font-size="10.5" fill="#5A6B7A"><tspan font-weight="600" fill="#1c2530">Cash Flow</tspan> → the forecast drivers</text>

  <!-- Scout tie-in -->
  <rect x="300" y="572" width="556" height="76" rx="12" fill="url(#gScout)" stroke="#EC6D3F" stroke-opacity="0.3"/>
  <circle cx="326" cy="600" r="13" fill="url(#gAv)"/><use href="#ic-scout" x="318.5" y="592.5" width="15" height="15" color="#F8F1E4"/>
  <text x="350" y="596" font-size="12.5" font-weight="600" fill="#1c2530">Scout walks these links for you</text>
  <text x="350" y="614" font-size="10.5" fill="#5A6B7A">“why is opex over budget?” drills the Actual column to the four entries.</text>
  <text x="350" y="630" font-size="10.5" fill="#5A6B7A">“what's driving the Scenario column?” rolls up to the sliders.</text>
</svg>
