<svg viewBox="0 0 286 1024" width="286" height="1024" xmlns="http://www.w3.org/2000/svg" font-family="Geist, system-ui, -apple-system, 'Segoe UI', Roboto, sans-serif">
  <defs>
    <linearGradient id="gSide" x1="0" y1="0" x2="0" y2="1"><stop offset="0" stop-color="#0E1726"/><stop offset="1" stop-color="#0B121E"/></linearGradient>
    <linearGradient id="gAv" x1="0" y1="0" x2="1" y2="1"><stop offset="0" stop-color="#EC6D3F"/><stop offset="1" stop-color="#E7B23A"/></linearGradient>
    <linearGradient id="gScout" x1="0" y1="0" x2="1" y2="0"><stop offset="0" stop-color="#EC6D3F" stop-opacity="0.16"/><stop offset="1" stop-color="#46C99A" stop-opacity="0.10"/></linearGradient>
    <filter id="soft" x="-20%" y="-20%" width="140%" height="140%"><feDropShadow dx="0" dy="14" stdDeviation="22" flood-color="#0E1726" flood-opacity="0.30"/></filter>
    <clipPath id="panel"><rect x="8" y="8" width="270" height="1008" rx="16"/></clipPath>

    <symbol id="mark" viewBox="0 0 30 30"><path d="M11 21 L18 16 L25 11" stroke="#9DB8CC" stroke-width="2" stroke-dasharray="0.5 4" stroke-linecap="round" fill="none" opacity="0.5"/><path d="M7 17 L11 21 L7 25" stroke="#F4ECDD" stroke-width="2.4" fill="none" stroke-linecap="round" stroke-linejoin="round"/><path d="M14 12 L18 16 L14 20" stroke="#F4ECDD" stroke-width="2.4" fill="none" stroke-linecap="round" stroke-linejoin="round"/><path d="M21 7 L25 11 L21 15" stroke="#EC6D3F" stroke-width="2.4" fill="none" stroke-linecap="round" stroke-linejoin="round"/></symbol>
    <symbol id="ic-scout" viewBox="0 0 24 24"><path d="M10 1.5 L11.4 7.6 L17.5 9 L11.4 10.4 L10 16.5 L8.6 10.4 L2.5 9 L8.6 7.6 Z" fill="currentColor"/></symbol>
    <symbol id="ic-dash" viewBox="0 0 24 24"><g fill="none" stroke="currentColor" stroke-width="1.8" stroke-linecap="round" stroke-linejoin="round"><rect x="3" y="3" width="8" height="8" rx="1.6"/><rect x="13" y="3" width="8" height="8" rx="1.6"/><rect x="13" y="13" width="8" height="8" rx="1.6"/><rect x="3" y="13" width="8" height="8" rx="1.6"/></g></symbol>
    <symbol id="ic-board" viewBox="0 0 24 24"><g fill="none" stroke="currentColor" stroke-width="1.8" stroke-linecap="round" stroke-linejoin="round"><rect x="3" y="4" width="18" height="12" rx="1.5"/><path d="M7 13 V10 M11 13 V7.5 M15 13 V11"/><path d="M12 16 V19 M9 19 H15"/></g></symbol>
    <symbol id="ic-pl" viewBox="0 0 24 24"><g fill="none" stroke="currentColor" stroke-width="1.8" stroke-linecap="round" stroke-linejoin="round"><path d="M4 3 V21 H21"/><path d="M7 15 L11 10 L14 13 L20 6"/></g></symbol>
    <symbol id="ic-bs" viewBox="0 0 24 24"><g fill="none" stroke="currentColor" stroke-width="1.8" stroke-linecap="round" stroke-linejoin="round"><path d="M12 4 V20"/><path d="M6 20 H18"/><path d="M4 8 H20"/><path d="M4 8 L2 13 a3 2 0 0 0 4 0 Z"/><path d="M20 8 L18 13 a3 2 0 0 0 4 0 Z"/></g></symbol>
    <symbol id="ic-cash" viewBox="0 0 24 24"><g fill="none" stroke="currentColor" stroke-width="1.8" stroke-linecap="round" stroke-linejoin="round"><rect x="3" y="7" width="18" height="10" rx="1.8"/><circle cx="12" cy="12" r="2.3"/><line x1="6" y1="9.5" x2="6" y2="14.5"/><line x1="18" y1="9.5" x2="18" y2="14.5"/></g></symbol>
    <symbol id="ic-txn" viewBox="0 0 24 24"><g fill="none" stroke="currentColor" stroke-width="1.8" stroke-linecap="round" stroke-linejoin="round"><circle cx="5" cy="6" r="1.2"/><line x1="9" y1="6" x2="20" y2="6"/><circle cx="5" cy="12" r="1.2"/><line x1="9" y1="12" x2="20" y2="12"/><circle cx="5" cy="18" r="1.2"/><line x1="9" y1="18" x2="20" y2="18"/></g></symbol>
    <symbol id="ic-rev" viewBox="0 0 24 24"><g fill="none" stroke="currentColor" stroke-width="1.8" stroke-linecap="round" stroke-linejoin="round"><path d="M3 17 L9 11 L13 15 L21 7"/><path d="M21 7 H16 M21 7 V12"/></g></symbol>
    <symbol id="ic-users" viewBox="0 0 24 24"><g fill="none" stroke="currentColor" stroke-width="1.8" stroke-linecap="round" stroke-linejoin="round"><circle cx="9" cy="8" r="3"/><path d="M3.5 20 a5.5 5.5 0 0 1 11 0"/><circle cx="16.5" cy="9" r="2.3"/><path d="M15.2 14.2 a5 5 0 0 1 5.3 5.8"/></g></symbol>
    <symbol id="ic-wallet" viewBox="0 0 24 24"><g fill="none" stroke="currentColor" stroke-width="1.8" stroke-linecap="round" stroke-linejoin="round"><rect x="3" y="6" width="18" height="13" rx="2.2"/><line x1="3" y1="10" x2="21" y2="10"/><circle cx="16.5" cy="14.5" r="1.3"/></g></symbol>
    <symbol id="ic-clock" viewBox="0 0 24 24"><g fill="none" stroke="currentColor" stroke-width="1.8" stroke-linecap="round" stroke-linejoin="round"><circle cx="12" cy="12" r="9"/><path d="M12 7 V12 L15.5 14"/></g></symbol>
    <symbol id="ic-waterfall" viewBox="0 0 24 24"><g fill="none" stroke="currentColor" stroke-width="1.8" stroke-linecap="round" stroke-linejoin="round"><path d="M4 5 H8 V11 H13 V16 H18 V20"/></g></symbol>
    <symbol id="ic-cube" viewBox="0 0 24 24"><g fill="none" stroke="currentColor" stroke-width="1.8" stroke-linecap="round" stroke-linejoin="round"><path d="M12 3 L20 7.5 V16.5 L12 21 L4 16.5 V7.5 Z"/><path d="M4 7.5 L12 12 L20 7.5"/><path d="M12 12 V21"/></g></symbol>
    <symbol id="ic-prepaid" viewBox="0 0 24 24"><g fill="none" stroke="currentColor" stroke-width="1.8" stroke-linecap="round" stroke-linejoin="round"><line x1="4" y1="7" x2="20" y2="7"/><line x1="4" y1="12" x2="15" y2="12"/><line x1="4" y1="17" x2="10" y2="17"/></g></symbol>
    <symbol id="ic-projects" viewBox="0 0 24 24"><g fill="none" stroke="currentColor" stroke-width="1.8" stroke-linecap="round" stroke-linejoin="round"><path d="M12 3 L20 7 L12 11 L4 7 Z"/><path d="M4 11 L12 15 L20 11"/><path d="M4 15 L12 19 L20 15"/></g></symbol>
    <symbol id="ic-staff" viewBox="0 0 24 24"><g fill="none" stroke="currentColor" stroke-width="1.8" stroke-linecap="round" stroke-linejoin="round"><rect x="4" y="5" width="16" height="14" rx="2"/><circle cx="12" cy="10.5" r="2.4"/><path d="M8.2 16.5 a3.8 3.8 0 0 1 7.6 0"/></g></symbol>
    <symbol id="ic-branch" viewBox="0 0 24 24"><g fill="none" stroke="currentColor" stroke-width="1.8" stroke-linecap="round" stroke-linejoin="round"><circle cx="6" cy="6" r="2.3"/><circle cx="6" cy="18" r="2.3"/><circle cx="18" cy="11" r="2.3"/><path d="M6 8.3 V15.7"/><path d="M6 11 C 10 11 14 11 15.7 11"/></g></symbol>
    <symbol id="ic-paired" viewBox="0 0 24 24"><g fill="none" stroke="currentColor" stroke-width="1.8" stroke-linecap="round" stroke-linejoin="round"><path d="M4 20 V21 H21"/><rect x="6" y="11" width="2.6" height="8"/><rect x="9" y="14" width="2.6" height="5"/><rect x="14" y="8" width="2.6" height="11"/><rect x="17" y="12" width="2.6" height="7"/></g></symbol>
    <symbol id="ic-gauge" viewBox="0 0 24 24"><g fill="none" stroke="currentColor" stroke-width="1.8" stroke-linecap="round" stroke-linejoin="round"><path d="M4 17 a8 8 0 0 1 16 0"/><path d="M12 17 L16.5 12.5"/><circle cx="12" cy="17" r="1.3"/></g></symbol>
    <symbol id="ic-sliders" viewBox="0 0 24 24"><g fill="none" stroke="currentColor" stroke-width="1.8" stroke-linecap="round" stroke-linejoin="round"><line x1="4" y1="8" x2="20" y2="8"/><circle cx="9" cy="8" r="2.2"/><line x1="4" y1="16" x2="20" y2="16"/><circle cx="15" cy="16" r="2.2"/></g></symbol>
    <symbol id="ic-import" viewBox="0 0 24 24"><g fill="none" stroke="currentColor" stroke-width="1.8" stroke-linecap="round" stroke-linejoin="round"><path d="M4 14 v4 a1 1 0 0 0 1 1 h14 a1 1 0 0 0 1 -1 v-4"/><path d="M12 3 V15"/><path d="M8 11 L12 15 L16 11"/></g></symbol>
    <symbol id="ic-map" viewBox="0 0 24 24"><g fill="none" stroke="currentColor" stroke-width="1.8" stroke-linecap="round" stroke-linejoin="round"><circle cx="6" cy="6" r="2"/><circle cx="6" cy="18" r="2"/><circle cx="18" cy="12" r="2"/><path d="M8 6 H12 a2 2 0 0 1 2 2 V10.2"/><path d="M8 18 H12 a2 2 0 0 1 2 -2 V13.8"/></g></symbol>
    <symbol id="ic-gear" viewBox="0 0 24 24"><g fill="none" stroke="currentColor" stroke-width="1.8" stroke-linecap="round" stroke-linejoin="round"><circle cx="12" cy="12" r="3"/><path d="M12 2.5 V5 M12 19 V21.5 M2.5 12 H5 M19 12 H21.5 M5.2 5.2 L7 7 M17 17 L18.8 18.8 M18.8 5.2 L17 7 M7 17 L5.2 18.8"/></g></symbol>
    <symbol id="ic-doc" viewBox="0 0 24 24"><g fill="none" stroke="currentColor" stroke-width="1.8" stroke-linecap="round" stroke-linejoin="round"><path d="M7 3 h7 l4 4 v13 a1 1 0 0 1 -1 1 H7 a1 1 0 0 1 -1 -1 V4 a1 1 0 0 1 1 -1 Z"/><path d="M14 3 v4 h4"/><path d="M9 13 h6 M9 16 h4"/></g></symbol>
  </defs>

  <rect x="8" y="8" width="270" height="1008" rx="16" fill="#0E1726" filter="url(#soft)" opacity="0.18"/>
  <rect x="8" y="8" width="270" height="1008" rx="16" fill="url(#gSide)" stroke="#0E1726"/>
  <g clip-path="url(#panel)">
    <use href="#mark" x="22" y="16" width="22" height="22"/>
    <text x="50" y="34" font-family="Fraunces, Georgia, serif" font-size="16" font-weight="600" fill="#F4ECDD">dogfood<tspan fill="#9DB8CC" font-weight="500">.cafe</tspan></text>

    <rect x="20" y="48" width="246" height="36" rx="9" fill="#FFFFFF" fill-opacity="0.025" stroke="#9DB8CC" stroke-opacity="0.16"/>
    <rect x="30" y="55" width="22" height="22" rx="6" fill="url(#gAv)"/><text x="41" y="70" font-size="10" font-weight="700" fill="#0E1726" text-anchor="middle">BD</text>
    <text x="60" y="64" font-size="12" font-weight="600" fill="#F4ECDD">Beacon Devices</text><text x="60" y="77" font-size="9.5" fill="#9DB8CC">FY26 · Jun</text>
    <path d="M250 64 l4 4 4 -4" stroke="#9DB8CC" stroke-width="1.5" fill="none" stroke-linecap="round" stroke-linejoin="round"/>

    <rect x="20" y="94" width="246" height="40" rx="10" fill="url(#gScout)" stroke="#EC6D3F" stroke-opacity="0.35"/>
    <use href="#ic-scout" x="30" y="104" width="18" height="18" color="#EC6D3F"/><text x="54" y="110" font-size="12.5" font-weight="600" fill="#F4ECDD">Ask Scout</text><text x="54" y="124" font-size="9.5" fill="#9DB8CC">module-aware</text>
    <rect x="212" y="104" width="28" height="16" rx="5" fill="none" stroke="#9DB8CC" stroke-opacity="0.25"/><text x="226" y="116" font-size="9" fill="#9DB8CC" text-anchor="middle">⌘K</text>

    <text x="24" y="154" font-size="9.5" font-weight="600" letter-spacing="0.8" fill="#8FA6BB" fill-opacity="0.55">OVERVIEW</text>
    <use href="#ic-dash" x="28" y="157" width="17" height="17" color="#8FA6BB"/><text x="50" y="169" font-size="12" font-weight="500" fill="#BFC9D4">Dashboard</text>
    <use href="#ic-board" x="28" y="179" width="17" height="17" color="#8FA6BB"/><text x="50" y="191" font-size="12" font-weight="500" fill="#BFC9D4">Board Package</text>

    <text x="24" y="211" font-size="9.5" font-weight="600" letter-spacing="0.8" fill="#8FA6BB" fill-opacity="0.55">FINANCIAL STATEMENTS</text>
    <rect x="14" y="215" width="238" height="28" rx="9" fill="#EC6D3F" fill-opacity="0.12"/><rect x="8" y="219" width="3" height="20" rx="1.5" fill="#EC6D3F"/>
    <use href="#ic-pl" x="28" y="217" width="17" height="17" color="#EC6D3F"/><text x="50" y="229" font-size="12" font-weight="600" fill="#F4ECDD">Forecasted P&amp;L</text>
    <use href="#ic-bs" x="28" y="239" width="17" height="17" color="#8FA6BB"/><text x="50" y="251" font-size="12" font-weight="500" fill="#BFC9D4">Balance Sheet</text>
    <use href="#ic-cash" x="28" y="261" width="17" height="17" color="#8FA6BB"/><text x="50" y="273" font-size="12" font-weight="500" fill="#BFC9D4">Cash Flow Forecast</text>

    <text x="24" y="293" font-size="9.5" font-weight="600" letter-spacing="0.8" fill="#8FA6BB" fill-opacity="0.55">REPORTING</text>
    <use href="#ic-projects" x="28" y="296" width="17" height="17" color="#8FA6BB"/><text x="50" y="308" font-size="12" font-weight="500" fill="#BFC9D4">Projects</text>
    <use href="#ic-staff" x="28" y="318" width="17" height="17" color="#8FA6BB"/><text x="50" y="330" font-size="12" font-weight="500" fill="#BFC9D4">Staff</text>
    <use href="#ic-txn" x="28" y="340" width="17" height="17" color="#8FA6BB"/><text x="50" y="352" font-size="12" font-weight="500" fill="#BFC9D4">Transaction Details</text>

    <text x="24" y="372" font-size="9.5" font-weight="600" letter-spacing="0.8" fill="#8FA6BB" fill-opacity="0.55">FORECASTS</text>
    <text x="30" y="388" font-size="9.5" font-weight="600" fill="#8FA6BB" fill-opacity="0.75">P&amp;L drivers</text>
    <line x1="38" y1="395" x2="38" y2="447" stroke="#9DB8CC" stroke-opacity="0.18"/>
    <use href="#ic-rev" x="42" y="391" width="16" height="16" color="#8FA6BB"/><text x="62" y="403" font-size="12" font-weight="500" fill="#BFC9D4">Revenue</text>
    <use href="#ic-users" x="42" y="413" width="16" height="16" color="#8FA6BB"/><text x="62" y="425" font-size="12" font-weight="500" fill="#BFC9D4">Personnel</text>
    <use href="#ic-wallet" x="42" y="435" width="16" height="16" color="#8FA6BB"/><text x="62" y="447" font-size="12" font-weight="600" fill="#D8DEE6">Expense Details</text>
    <path d="M229 443 l4 4 4 -4" stroke="#8FA6BB" stroke-width="1.5" fill="none" stroke-linecap="round" stroke-linejoin="round"/>
    <!-- expense groups, defined in Account Mapping -->
    <line x1="56" y1="458" x2="56" y2="522" stroke="#9DB8CC" stroke-opacity="0.2"/>
    <circle cx="56" cy="464" r="1.6" fill="#7E8EA0"/><text x="68" y="468" font-size="11.5" font-weight="500" fill="#AEB9C5">Cost of Revenue</text>
    <circle cx="56" cy="484" r="1.6" fill="#7E8EA0"/><text x="68" y="488" font-size="11.5" font-weight="500" fill="#AEB9C5">Sales &amp; Marketing</text>
    <circle cx="56" cy="504" r="1.6" fill="#7E8EA0"/><text x="68" y="508" font-size="11.5" font-weight="500" fill="#AEB9C5">Research &amp; Development</text>
    <circle cx="56" cy="524" r="1.6" fill="#7E8EA0"/><text x="68" y="528" font-size="11.5" font-weight="500" fill="#AEB9C5">General &amp; Administrative</text>
    <text x="30" y="546" font-size="9.5" font-weight="600" fill="#8FA6BB" fill-opacity="0.75">Balance sheet drivers</text>
    <line x1="38" y1="553" x2="38" y2="637" stroke="#9DB8CC" stroke-opacity="0.18"/>
    <use href="#ic-clock" x="42" y="549" width="16" height="16" color="#8FA6BB"/><text x="62" y="561" font-size="12" font-weight="500" fill="#BFC9D4">AR Forecast</text>
    <use href="#ic-waterfall" x="42" y="571" width="16" height="16" color="#8FA6BB"/><text x="62" y="583" font-size="12" font-weight="500" fill="#BFC9D4">Waterfall Revenue Fcst</text>
    <use href="#ic-cube" x="42" y="593" width="16" height="16" color="#8FA6BB"/><text x="62" y="605" font-size="12" font-weight="500" fill="#BFC9D4">Fixed Asset Budget</text>
    <use href="#ic-prepaid" x="42" y="615" width="16" height="16" color="#8FA6BB"/><text x="62" y="627" font-size="12" font-weight="500" fill="#BFC9D4">Prepaids Budget</text>

    <text x="24" y="647" font-size="9.5" font-weight="600" letter-spacing="0.8" fill="#8FA6BB" fill-opacity="0.55">SCENARIOS</text>
    <use href="#ic-branch" x="28" y="650" width="17" height="17" color="#8FA6BB"/><text x="50" y="662" font-size="12" font-weight="500" fill="#BFC9D4">Scenario Manager</text>
    <use href="#ic-paired" x="28" y="672" width="17" height="17" color="#8FA6BB"/><text x="50" y="684" font-size="12" font-weight="500" fill="#BFC9D4">Scenario P&amp;L</text>
    <use href="#ic-gauge" x="28" y="694" width="17" height="17" color="#8FA6BB"/><text x="50" y="706" font-size="12" font-weight="500" fill="#BFC9D4">Scenario Dashboard</text>
    <use href="#ic-sliders" x="28" y="716" width="17" height="17" color="#EC6D3F"/><text x="50" y="728" font-size="12" font-weight="600" fill="#D8DEE6">Scenario Drivers &amp; Sliders</text>

    <line x1="20" y1="747" x2="266" y2="747" stroke="#9DB8CC" stroke-opacity="0.14" stroke-dasharray="2 4"/>

    <text x="24" y="765" font-size="9.5" font-weight="600" letter-spacing="0.8" fill="#8FA6BB" fill-opacity="0.5">SETUP</text>
    <use href="#ic-import" x="28" y="768" width="17" height="17" color="#9DB8CC"/><text x="50" y="780" font-size="12" font-weight="500" fill="#BFC9D4">Data Import</text>
    <use href="#ic-map" x="28" y="790" width="17" height="17" color="#9DB8CC"/><text x="50" y="802" font-size="12" font-weight="500" fill="#BFC9D4">Account Mapping</text>
    <use href="#ic-gear" x="28" y="812" width="17" height="17" color="#9DB8CC"/><text x="50" y="824" font-size="12" font-weight="500" fill="#BFC9D4">Settings</text>

    <text x="24" y="845" font-size="9.5" font-weight="600" letter-spacing="0.8" fill="#8FA6BB" fill-opacity="0.45">USER GUIDES</text>
    <use href="#ic-doc" x="28" y="847" width="15" height="15" color="#7E8EA0"/><text x="48" y="859" font-size="11" font-weight="500" fill="#A6B2BF">Getting started</text>
    <use href="#ic-doc" x="28" y="867" width="15" height="15" color="#7E8EA0"/><text x="48" y="879" font-size="11" font-weight="500" fill="#A6B2BF">Budgets &amp; forecasts</text>
    <use href="#ic-doc" x="28" y="887" width="15" height="15" color="#7E8EA0"/><text x="48" y="899" font-size="11" font-weight="500" fill="#A6B2BF">Updating actuals</text>
    <use href="#ic-doc" x="28" y="907" width="15" height="15" color="#7E8EA0"/><text x="48" y="919" font-size="11" font-weight="500" fill="#A6B2BF">Creating scenarios</text>
    <use href="#ic-doc" x="28" y="927" width="15" height="15" color="#7E8EA0"/><text x="48" y="939" font-size="11" font-weight="500" fill="#A6B2BF">Reading the statements</text>
    <use href="#ic-doc" x="28" y="947" width="15" height="15" color="#7E8EA0"/><text x="48" y="959" font-size="11" font-weight="500" fill="#A6B2BF">Asking Scout</text>

    <line x1="20" y1="978" x2="266" y2="978" stroke="#9DB8CC" stroke-opacity="0.16"/>
    <circle cx="34" cy="998" r="12" fill="#16273A"/><text x="34" y="1002" font-size="11" font-weight="700" fill="#F4ECDD" text-anchor="middle">C</text>
    <text x="54" y="994" font-size="12" font-weight="600" fill="#F4ECDD">Chris</text><text x="54" y="1006" font-size="10" fill="#9DB8CC">Controller</text>
  </g>
</svg>
