<svg viewBox="0 0 1080 1140" width="1080" height="1140" xmlns="http://www.w3.org/2000/svg" font-family="Geist, system-ui, -apple-system, 'Segoe UI', Roboto, sans-serif">
  <defs>
    <linearGradient id="gWfall" x1="0" y1="0" x2="0" y2="1"><stop offset="0" stop-color="#EC6D3F"/><stop offset="1" stop-color="#E7B23A"/></linearGradient>
    <filter id="cardsh" x="-10%" y="-10%" width="120%" height="130%"><feDropShadow dx="0" dy="3" stdDeviation="6" flood-color="#0E1726" flood-opacity="0.08"/></filter>
    <marker id="arrow" viewBox="0 0 10 10" refX="8" refY="5" markerWidth="7" markerHeight="7" orient="auto-start-reverse"><path d="M0 0 L10 5 L0 10 z" fill="#EC6D3F"/></marker>
  </defs>

  <rect x="0" y="0" width="1080" height="1140" fill="#FAF7F1"/>

  <!-- ===== header ===== -->
  <text x="40" y="52" font-size="11.5" fill="#9AA6B2">Forecasted P&amp;L <tspan fill="#C3CBD3">›</tspan> Revenue <tspan fill="#C3CBD3">›</tspan> <tspan fill="#C9582E" font-weight="600">Recognized · May 2026</tspan></text>
  <text x="40" y="90" font-family="Fraunces, Georgia, serif" font-size="30" font-weight="600" fill="#1c2530">Revenue recognized · May 2026</text>
  <rect x="812" y="66" width="62" height="26" rx="13" fill="#46C99A" fill-opacity="0.16"/><circle cx="826" cy="79" r="3" fill="#2FA37D"/><text x="836" y="83" font-size="10.5" font-weight="600" fill="#2A8A66">ACTUAL</text>
  <rect x="882" y="66" width="158" height="26" rx="13" fill="#FFFFFF" stroke="#E6DECF"/><text x="900" y="83" font-size="12" fill="#9AA6B2">‹</text><text x="961" y="83" font-size="12" font-weight="600" fill="#1c2530" text-anchor="middle">May 2026</text><text x="1022" y="83" font-size="12" fill="#9AA6B2">›</text>
  <line x1="40" y1="110" x2="1040" y2="110" stroke="#E6DECF"/>

  <!-- ===== PANEL A — drill path ===== -->
  <text x="40" y="140" font-size="11" font-weight="700" letter-spacing="1.2" fill="#C9582E">THE DRILL PATH<tspan fill="#9AA6B2" font-weight="500" letter-spacing="0.3">  ·  how you reach this view</tspan></text>

  <!-- card 1: Forecasted P&L -->
  <rect x="40" y="156" width="296" height="156" rx="12" fill="#FFFFFF" stroke="#ECE6DB" filter="url(#cardsh)"/>
  <text x="56" y="178" font-size="10.5" font-weight="600" letter-spacing="0.4" fill="#6E7B8A">FORECASTED P&amp;L</text>
  <text x="56" y="200" font-size="11.5" font-weight="700" fill="#1c2530">Revenue</text>
  <rect x="52" y="206" width="272" height="24" rx="5" fill="#EC6D3F" fill-opacity="0.10"/>
  <text x="62" y="222" font-size="12" fill="#1c2530">Subscription</text><text x="300" y="222" font-size="12" font-weight="700" fill="#1c2530" text-anchor="end">$1.35M</text>
  <path d="M308 216 l11 4 -4 2 3 5 -2 1 -3 -5 -3 3 z" fill="#1c2530"/>
  <text x="62" y="246" font-size="12" fill="#41505F">Services</text><text x="300" y="246" font-size="12" font-weight="600" fill="#41505F" text-anchor="end">$0.45M</text>
  <line x1="56" y1="262" x2="320" y2="262" stroke="#F0EADF"/>
  <text x="62" y="280" font-size="11.5" fill="#B8C0C9">Direct costs …</text>
  <text x="56" y="302" font-size="11" font-weight="600" fill="#C9582E">① Click a revenue line</text>

  <line x1="344" y1="234" x2="384" y2="234" stroke="#EC6D3F" stroke-width="1.8" marker-end="url(#arrow)"/>
  <text x="364" y="224" font-size="9" fill="#C9582E" text-anchor="middle">month</text>

  <!-- card 2: recognized detail (current) -->
  <rect x="392" y="156" width="296" height="156" rx="12" fill="#FFFFFF" stroke="#EC6D3F" stroke-width="2" filter="url(#cardsh)"/>
  <text x="408" y="178" font-size="10.5" font-weight="600" letter-spacing="0.4" fill="#6E7B8A">REVENUE RECOGNIZED · MAY</text>
  <circle cx="412" cy="196" r="3" fill="#2FA37D"/><text x="422" y="200" font-size="10.5" fill="#41505F">Subscription</text>
  <rect x="422" y="206" width="150" height="6" rx="3" fill="#E7DFD2"/><rect x="422" y="216" width="120" height="6" rx="3" fill="#E7DFD2"/>
  <circle cx="412" cy="234" r="3" fill="#B9852A"/><text x="422" y="238" font-size="10.5" fill="#41505F">Services</text>
  <rect x="422" y="244" width="110" height="6" rx="3" fill="#E7DFD2"/><rect x="422" y="254" width="86" height="6" rx="3" fill="#E7DFD2"/>
  <rect x="408" y="270" width="264" height="22" rx="5" fill="#EC6D3F" fill-opacity="0.12"/><text x="418" y="285" font-size="10.5" font-weight="600" fill="#1c2530">Total recognized</text><text x="664" y="285" font-size="11" font-weight="700" fill="#C9582E" text-anchor="end">$1.80M</text>
  <text x="408" y="302" font-size="11" font-weight="600" fill="#C9582E">② Itemized contributors <tspan fill="#9AA6B2" font-weight="500">— this view</tspan></text>

  <line x1="696" y1="234" x2="736" y2="234" stroke="#EC6D3F" stroke-width="1.8" marker-end="url(#arrow)"/>
  <text x="716" y="224" font-size="9" fill="#C9582E" text-anchor="middle">row</text>

  <!-- card 3: contract schedule -->
  <rect x="744" y="156" width="296" height="156" rx="12" fill="#FFFFFF" stroke="#ECE6DB" filter="url(#cardsh)"/>
  <text x="760" y="178" font-size="10.5" font-weight="600" letter-spacing="0.4" fill="#6E7B8A">NORTHWIND · NW-2024-11</text>
  <text x="760" y="196" font-size="10" fill="#9AA6B2">606 schedule · deferred waterfall</text>
  <line x1="760" y1="288" x2="1020" y2="288" stroke="#E6DECF"/>
  <rect x="772" y="214" width="26" height="74" rx="2" fill="url(#gWfall)"/>
  <rect x="812" y="226" width="26" height="62" rx="2" fill="url(#gWfall)" opacity="0.9"/>
  <rect x="852" y="236" width="26" height="52" rx="2" fill="url(#gWfall)" opacity="0.8"/>
  <rect x="892" y="246" width="26" height="42" rx="2" fill="url(#gWfall)" opacity="0.7"/>
  <rect x="932" y="254" width="26" height="34" rx="2" fill="url(#gWfall)" opacity="0.6"/>
  <rect x="972" y="262" width="26" height="26" rx="2" fill="url(#gWfall)" opacity="0.5"/>
  <text x="760" y="304" font-size="11" font-weight="600" fill="#C9582E">③ One contract’s schedule</text>

  <text x="40" y="346" font-size="11" fill="#6E7B8A"><tspan fill="#B9852A" font-weight="700">◆</tspan> Services mirrors this path: the <tspan font-weight="600" fill="#41505F">Services</tspan> line drills to <tspan font-weight="600" fill="#41505F">Projects</tspan> (% complete / WIP), not Contracts.</text>

  <!-- ===== PANEL B — detail view ===== -->
  <text x="40" y="388" font-size="11" font-weight="700" letter-spacing="1.2" fill="#C9582E">THE DETAIL VIEW<tspan fill="#9AA6B2" font-weight="500" letter-spacing="0.3">  ·  what makes up the month</tspan></text>

  <rect x="40" y="404" width="760" height="662" rx="12" fill="#FFFFFF" stroke="#ECE6DB" filter="url(#cardsh)"/>
  <text x="56" y="430" font-size="10.5" font-style="italic" fill="#9AA6B2">Source · getRecognizedRevenue('2026-05', stream) — rows sum to the line by construction.</text>

  <!-- Subscription section -->
  <rect x="40" y="442" width="760" height="30" fill="#EFE9DD"/>
  <circle cx="60" cy="457" r="4" fill="#2FA37D"/><text x="74" y="461" font-size="11" font-weight="700" letter-spacing="0.6" fill="#1c2530">SUBSCRIPTION</text><text x="186" y="461" font-size="10.5" fill="#8A96A2">606 · ratable</text>
  <text x="784" y="461" font-size="10" fill="#8A96A2" text-anchor="end">sorted by contribution ↓</text>
  <text x="56" y="490" font-size="9.5" font-weight="600" letter-spacing="0.4" fill="#9AA6B2">CUSTOMER</text>
  <text x="216" y="490" font-size="9.5" font-weight="600" letter-spacing="0.4" fill="#9AA6B2">CONTRACT</text>
  <text x="320" y="490" font-size="9.5" font-weight="600" letter-spacing="0.4" fill="#9AA6B2">PLAN / ARR</text>
  <text x="636" y="490" font-size="9.5" font-weight="600" letter-spacing="0.4" fill="#9AA6B2" text-anchor="end">RECOGNIZED · MAY</text>
  <text x="784" y="490" font-size="9.5" font-weight="600" letter-spacing="0.4" fill="#9AA6B2" text-anchor="end">DEFERRED</text>
  <line x1="56" y1="498" x2="784" y2="498" stroke="#ECE6DB"/>

  <g font-size="12" fill="#1c2530">
    <text x="56" y="520">Northwind Cloud</text><text x="216" y="520" fill="#6E7B8A">NW-2024-11</text><text x="320" y="520" fill="#6E7B8A">Scale · $2.2M</text><text x="636" y="520" font-weight="700" text-anchor="end">$183K</text><text x="784" y="520" fill="#6E7B8A" text-anchor="end">$1.04M</text>
    <text x="56" y="550">Helix AI</text><text x="216" y="550" fill="#6E7B8A">HX-2025-02</text><text x="320" y="550" fill="#6E7B8A">Scale · $1.8M</text><text x="636" y="550" font-weight="700" text-anchor="end">$150K</text><text x="784" y="550" fill="#6E7B8A" text-anchor="end">$720K</text>
    <text x="56" y="580">Atlas Data</text><text x="216" y="580" fill="#6E7B8A">AT-2025-05</text><text x="320" y="580" fill="#6E7B8A">Scale · $1.45M</text><text x="636" y="580" font-weight="700" text-anchor="end">$121K</text><text x="784" y="580" fill="#6E7B8A" text-anchor="end">$880K</text>
    <text x="56" y="610">Cedar Security</text><text x="216" y="610" fill="#6E7B8A">CF-2024-08</text><text x="320" y="610" fill="#6E7B8A">Growth · $1.15M</text><text x="636" y="610" font-weight="700" text-anchor="end">$96K</text><text x="784" y="610" fill="#6E7B8A" text-anchor="end">$300K</text>
    <text x="56" y="640">Mariner Analytics</text><text x="216" y="640" fill="#6E7B8A">ML-2023-12</text><text x="320" y="640" fill="#6E7B8A">Growth · $0.94M</text><text x="636" y="640" font-weight="700" text-anchor="end">$78K</text><text x="784" y="640" fill="#6E7B8A" text-anchor="end">$240K</text>
    <text x="56" y="670">Pinnacle Health AI</text><text x="216" y="670" fill="#6E7B8A">PH-2025-01</text><text x="320" y="670" fill="#6E7B8A">Starter · $0.66M</text><text x="636" y="670" font-weight="700" text-anchor="end">$55K</text><text x="784" y="670" fill="#6E7B8A" text-anchor="end">$360K</text>
  </g>
  <line x1="56" y1="684" x2="784" y2="684" stroke="#F4EFE6" stroke-dasharray="2 3"/>
  <text x="56" y="704" font-size="12" font-style="italic" fill="#8A96A2">+ 14 more contracts</text><text x="636" y="704" font-size="12" font-weight="600" fill="#41505F" text-anchor="end">$667K</text><text x="784" y="704" font-size="12" fill="#C3CBD3" text-anchor="end">–</text>

  <rect x="40" y="716" width="760" height="34" fill="#F1ECE2"/>
  <text x="56" y="738" font-size="11.5" font-weight="700" fill="#1c2530">Subscription recognized · May</text><text x="784" y="738" font-size="13" font-weight="700" fill="#1c2530" text-anchor="end">$1,350,000</text>

  <!-- Services section -->
  <rect x="40" y="760" width="760" height="30" fill="#EFE9DD"/>
  <circle cx="60" cy="775" r="4" fill="#B9852A"/><text x="74" y="779" font-size="11" font-weight="700" letter-spacing="0.6" fill="#1c2530">SERVICES</text><text x="150" y="779" font-size="10.5" fill="#8A96A2">% complete · WIP</text>
  <text x="784" y="779" font-size="10" fill="#8A96A2" text-anchor="end">sorted by contribution ↓</text>
  <text x="56" y="806" font-size="9.5" font-weight="600" letter-spacing="0.4" fill="#9AA6B2">ENGAGEMENT</text>
  <text x="330" y="806" font-size="9.5" font-weight="600" letter-spacing="0.4" fill="#9AA6B2" text-anchor="middle">% COMPLETE Δ</text>
  <text x="556" y="806" font-size="9.5" font-weight="600" letter-spacing="0.4" fill="#9AA6B2" text-anchor="end">RECOGNIZED · MAY</text>
  <text x="688" y="806" font-size="9.5" font-weight="600" letter-spacing="0.4" fill="#9AA6B2" text-anchor="end">WIP</text>
  <text x="784" y="806" font-size="9.5" font-weight="600" letter-spacing="0.4" fill="#9AA6B2" text-anchor="end">MARGIN</text>
  <line x1="56" y1="814" x2="784" y2="814" stroke="#ECE6DB"/>

  <g font-size="12" fill="#1c2530">
    <text x="56" y="836">Implementation · Northwind</text><rect x="306" y="826" width="48" height="16" rx="8" fill="#46C99A" fill-opacity="0.15"/><text x="330" y="838" font-size="10.5" font-weight="600" fill="#2A8A66" text-anchor="middle">+22%</text><text x="556" y="836" font-weight="700" text-anchor="end">$128K</text><text x="688" y="836" fill="#6E7B8A" text-anchor="end">$96K</text><text x="784" y="836" fill="#6E7B8A" text-anchor="end">38%</text>
    <text x="56" y="866">Rollout · Atlas Data</text><rect x="306" y="856" width="48" height="16" rx="8" fill="#46C99A" fill-opacity="0.15"/><text x="330" y="868" font-size="10.5" font-weight="600" fill="#2A8A66" text-anchor="middle">+16%</text><text x="556" y="866" font-weight="700" text-anchor="end">$92K</text><text x="688" y="866" fill="#6E7B8A" text-anchor="end">$140K</text><text x="784" y="866" fill="#6E7B8A" text-anchor="end">31%</text>
    <text x="56" y="896">Migration · Helix AI</text><rect x="306" y="886" width="48" height="16" rx="8" fill="#46C99A" fill-opacity="0.15"/><text x="330" y="898" font-size="10.5" font-weight="600" fill="#2A8A66" text-anchor="middle">+14%</text><text x="556" y="896" font-weight="700" text-anchor="end">$74K</text><text x="688" y="896" fill="#6E7B8A" text-anchor="end">$58K</text><text x="784" y="896" fill="#6E7B8A" text-anchor="end">42%</text>
    <text x="56" y="926">Onboarding · Cedar Security</text><rect x="306" y="916" width="48" height="16" rx="8" fill="#46C99A" fill-opacity="0.15"/><text x="330" y="928" font-size="10.5" font-weight="600" fill="#2A8A66" text-anchor="middle">+19%</text><text x="556" y="926" font-weight="700" text-anchor="end">$61K</text><text x="688" y="926" fill="#6E7B8A" text-anchor="end">$22K</text><text x="784" y="926" fill="#6E7B8A" text-anchor="end">29%</text>
  </g>
  <line x1="56" y1="940" x2="784" y2="940" stroke="#F4EFE6" stroke-dasharray="2 3"/>
  <text x="56" y="960" font-size="12" font-style="italic" fill="#8A96A2">+ 5 more engagements</text><text x="556" y="960" font-size="12" font-weight="600" fill="#41505F" text-anchor="end">$95K</text>

  <rect x="40" y="972" width="760" height="34" fill="#F1ECE2"/>
  <text x="56" y="994" font-size="11.5" font-weight="700" fill="#1c2530">Services recognized · May</text><text x="784" y="994" font-size="13" font-weight="700" fill="#1c2530" text-anchor="end">$450,000</text>

  <!-- grand total -->
  <rect x="40" y="1014" width="760" height="44" rx="0" fill="#EC6D3F" fill-opacity="0.10"/><rect x="40" y="1014" width="4" height="44" fill="#EC6D3F"/>
  <text x="56" y="1042" font-size="12.5" font-weight="700" fill="#1c2530">Total recognized · May 2026</text><text x="784" y="1042" font-size="16" font-weight="700" fill="#C9582E" text-anchor="end">$1,800,000</text>

  <!-- ===== annotations gutter ===== -->
  <!-- a: source -->
  <line x1="800" y1="428" x2="824" y2="446" stroke="#EC6D3F" stroke-opacity="0.5" stroke-width="1.3"/><circle cx="800" cy="428" r="2.4" fill="#EC6D3F"/>
  <rect x="824" y="436" width="216" height="44" rx="8" fill="#EC6D3F" fill-opacity="0.07" stroke="#EC6D3F" stroke-opacity="0.28"/>
  <text x="836" y="453" font-size="10.5" font-weight="600" fill="#C9582E">One query, two cross-sections:</text><text x="836" y="469" font-size="10" fill="#6E7B8A">by period here · by record in the schedule.</text>

  <!-- b: drill a row -->
  <line x1="800" y1="516" x2="824" y2="528" stroke="#EC6D3F" stroke-opacity="0.5" stroke-width="1.3"/><circle cx="800" cy="516" r="2.4" fill="#EC6D3F"/>
  <rect x="824" y="510" width="216" height="46" rx="8" fill="#EC6D3F" fill-opacity="0.07" stroke="#EC6D3F" stroke-opacity="0.28"/>
  <text x="836" y="528" font-size="10.5" font-weight="600" fill="#C9582E">Drill any row → ③</text><text x="836" y="544" font-size="10" fill="#6E7B8A">that contract’s 606 schedule + waterfall.</text>

  <!-- c: subscription subtotal tie -->
  <line x1="800" y1="733" x2="824" y2="726" stroke="#EC6D3F" stroke-opacity="0.5" stroke-width="1.3"/><circle cx="800" cy="733" r="2.4" fill="#EC6D3F"/>
  <rect x="824" y="708" width="216" height="40" rx="8" fill="#46C99A" fill-opacity="0.08" stroke="#2FA37D" stroke-opacity="0.3"/>
  <text x="836" y="725" font-size="10.5" font-weight="600" fill="#2A8A66">= the Subscription line</text><text x="836" y="740" font-size="10" fill="#6E7B8A">on the P&amp;L (May, actual).</text>

  <!-- e: services subtotal tie -->
  <line x1="800" y1="989" x2="824" y2="982" stroke="#EC6D3F" stroke-opacity="0.5" stroke-width="1.3"/><circle cx="800" cy="989" r="2.4" fill="#EC6D3F"/>
  <rect x="824" y="964" width="216" height="40" rx="8" fill="#E7B23A" fill-opacity="0.10" stroke="#B9852A" stroke-opacity="0.3"/>
  <text x="836" y="981" font-size="10.5" font-weight="600" fill="#9A6E1E">= the Services line</text><text x="836" y="996" font-size="10" fill="#6E7B8A">on the P&amp;L (May, actual).</text>

  <!-- d: grand total tie -->
  <line x1="800" y1="1036" x2="824" y2="1036" stroke="#EC6D3F" stroke-opacity="0.5" stroke-width="1.3"/><circle cx="800" cy="1036" r="2.4" fill="#EC6D3F"/>
  <rect x="824" y="1016" width="216" height="40" rx="8" fill="#EC6D3F" fill-opacity="0.10" stroke="#EC6D3F" stroke-opacity="0.35"/>
  <text x="836" y="1033" font-size="10.5" font-weight="700" fill="#C9582E">= Revenue on the P&amp;L</text><text x="836" y="1048" font-size="10" fill="#6E7B8A">$1.35M + $0.45M = $1.80M.</text>

  <!-- footer -->
  <text x="40" y="1098" font-size="11" fill="#8A96A2">Same numbers as the statement — one source, read <tspan font-weight="600" fill="#41505F">by period</tspan> (this view) or <tspan font-weight="600" fill="#41505F">by record</tspan> (the schedule). No reconciliation step, because there is no second source.</text>
</svg>
